# xmcd CD database file
#
# Track frame offsets:
#	150
#	24363
#	42116
#	72921
#	99858
#	121540
#	139323
#	163170
#	186105
#	191752
#	225906
#
# Disc length: 3261 seconds
#
# Revision: 0
# Processed by: cddbd v1.5.2PL0 Copyright (c) Steve Scherf et al.
# Submitted via: CDex 1.51
#
DISCID=850cbb0b
DTITLE=Rik Mol - What's on tonight?!
DYEAR=2006
DGENRE=Jazz
TTITLE0=Downtown
TTITLE1=Shoulders down!
TTITLE2=Skydive
TTITLE3=Without goodbye
TTITLE4=Home alone together
TTITLE5=Channel 14
TTITLE6=Stay on it
TTITLE7=Miss incognita
TTITLE8=Prepare to dive
TTITLE9=Skydive (with strings)
TTITLE10=What's on tonight?!
EXTD=YEAR: 2006
EXTT0=
EXTT1=
EXTT2=
EXTT3=
EXTT4=
EXTT5=
EXTT6=
EXTT7=
EXTT8=
EXTT9=
EXTT10=
PLAYORDER=
